<svg width="274" height="44" viewBox="0 0 274 44" fill="none" xmlns="http://www.w3.org/2000/svg">
<path d="M7.384 31.5L0.676 12.26H3.874L9.36 28.25L14.82 12.26H18.018L11.284 31.5H7.384ZM25.5826 31.76C24.4212 31.76 23.4159 31.5607 22.5666 31.162C21.7346 30.746 21.0412 30.2 20.4866 29.524C19.9492 28.8307 19.5419 28.0593 19.2646 27.21C19.0046 26.3607 18.8746 25.494 18.8746 24.61C18.8746 23.7433 19.0046 22.8853 19.2646 22.036C19.5246 21.1867 19.9232 20.4153 20.4606 19.722C20.9979 19.0287 21.6826 18.4827 22.5146 18.084C23.3466 17.668 24.3259 17.46 25.4526 17.46C26.6659 17.46 27.7319 17.7373 28.6506 18.292C29.5866 18.8293 30.3146 19.6353 30.8346 20.71C31.3719 21.7673 31.6406 23.0847 31.6406 24.662V25.468H21.8646C21.9339 26.5253 22.2892 27.4353 22.9306 28.198C23.5719 28.9607 24.4559 29.342 25.5826 29.342C26.2239 29.342 26.7526 29.238 27.1686 29.03C27.5846 28.8047 27.9052 28.5533 28.1306 28.276C28.3559 27.9987 28.5119 27.756 28.5986 27.548C28.7026 27.34 28.7546 27.236 28.7546 27.236H31.5106C31.5106 27.236 31.4672 27.392 31.3806 27.704C31.2939 27.9987 31.1292 28.3713 30.8866 28.822C30.6612 29.2727 30.3319 29.7233 29.8986 30.174C29.4652 30.6247 28.8932 31.006 28.1826 31.318C27.4719 31.6127 26.6052 31.76 25.5826 31.76ZM21.8906 23.388H28.7806C28.7112 22.1747 28.3472 21.282 27.6886 20.71C27.0472 20.138 26.2932 19.852 25.4266 19.852C24.4559 19.852 23.6499 20.1727 23.0086 20.814C22.3672 21.438 21.9946 22.296 21.8906 23.388ZM34.8 31.5V17.72H37.764V19.722H37.92C38.0413 19.4793 38.2493 19.1847 38.544 18.838C38.8387 18.474 39.246 18.1533 39.766 17.876C40.3033 17.5987 40.9793 17.46 41.794 17.46C42.8167 17.46 43.6747 17.694 44.368 18.162C45.0613 18.63 45.5813 19.254 45.928 20.034C46.292 20.814 46.474 21.672 46.474 22.608V31.5H43.51V22.92C43.51 22.088 43.276 21.386 42.808 20.814C42.3573 20.242 41.6813 19.956 40.78 19.956C40.0693 19.956 39.4887 20.138 39.038 20.502C38.6047 20.8487 38.284 21.308 38.076 21.88C37.868 22.4347 37.764 23.0327 37.764 23.674V31.5H34.8ZM55.8106 31.76C54.7706 31.76 53.8606 31.5607 53.0806 31.162C52.318 30.746 51.6766 30.2 51.1566 29.524C50.6366 28.8307 50.2466 28.0593 49.9866 27.21C49.744 26.3607 49.6226 25.494 49.6226 24.61C49.6226 23.726 49.744 22.8593 49.9866 22.01C50.2466 21.1607 50.6366 20.398 51.1566 19.722C51.6766 19.0287 52.318 18.4827 53.0806 18.084C53.8606 17.668 54.7706 17.46 55.8106 17.46C56.6773 17.46 57.3966 17.5987 57.9686 17.876C58.558 18.1533 59.026 18.474 59.3726 18.838C59.7193 19.202 59.9706 19.514 60.1266 19.774H60.2826V11.74H63.2466V31.5H60.2826V29.446H60.1266C59.9706 29.706 59.7193 30.018 59.3726 30.382C59.026 30.746 58.558 31.0667 57.9686 31.344C57.3966 31.6213 56.6773 31.76 55.8106 31.76ZM56.4606 29.29C57.31 29.29 58.012 29.0647 58.5666 28.614C59.1386 28.146 59.5633 27.5567 59.8406 26.846C60.1353 26.1353 60.2826 25.39 60.2826 24.61C60.2826 23.83 60.1353 23.0847 59.8406 22.374C59.5633 21.6633 59.1386 21.0827 58.5666 20.632C58.012 20.164 57.31 19.93 56.4606 19.93C55.6113 19.93 54.9006 20.164 54.3286 20.632C53.7566 21.0827 53.3233 21.6633 53.0286 22.374C52.7513 23.0847 52.6126 23.83 52.6126 24.61C52.6126 25.39 52.7513 26.1353 53.0286 26.846C53.3233 27.5567 53.7566 28.146 54.3286 28.614C54.9006 29.0647 55.6113 29.29 56.4606 29.29ZM68.7905 15.354C68.2532 15.354 67.8112 15.172 67.4645 14.808C67.1178 14.444 66.9445 14.0193 66.9445 13.534C66.9445 13.0313 67.1178 12.6067 67.4645 12.26C67.8112 11.896 68.2532 11.714 68.7905 11.714C69.3278 11.714 69.7698 11.896 70.1165 12.26C70.4805 12.6067 70.6625 13.0313 70.6625 13.534C70.6625 14.0367 70.4805 14.47 70.1165 14.834C69.7698 15.1807 69.3278 15.354 68.7905 15.354ZM67.3345 31.5V17.72H70.2985V31.5H67.3345ZM74.1047 31.5V17.72H77.0687V19.722H77.2247C77.346 19.4793 77.554 19.1847 77.8487 18.838C78.1433 18.474 78.5507 18.1533 79.0707 17.876C79.608 17.5987 80.284 17.46 81.0987 17.46C82.1213 17.46 82.9793 17.694 83.6727 18.162C84.366 18.63 84.886 19.254 85.2327 20.034C85.5967 20.814 85.7787 21.672 85.7787 22.608V31.5H82.8147V22.92C82.8147 22.088 82.5807 21.386 82.1127 20.814C81.662 20.242 80.986 19.956 80.0847 19.956C79.374 19.956 78.7933 20.138 78.3427 20.502C77.9093 20.8487 77.5887 21.308 77.3807 21.88C77.1727 22.4347 77.0687 23.0327 77.0687 23.674V31.5H74.1047ZM95.9473 36.986C94.7513 36.986 93.7633 36.83 92.9833 36.518C92.2033 36.206 91.5793 35.816 91.1113 35.348C90.6433 34.8973 90.2966 34.438 90.0713 33.97C89.846 33.5193 89.6986 33.138 89.6293 32.826C89.56 32.514 89.5253 32.358 89.5253 32.358H92.4633C92.4633 32.358 92.498 32.462 92.5673 32.67C92.6366 32.8953 92.784 33.1467 93.0093 33.424C93.252 33.7187 93.6073 33.97 94.0753 34.178C94.5433 34.4033 95.1586 34.516 95.9213 34.516C96.8226 34.516 97.542 34.334 98.0793 33.97C98.634 33.6233 99.024 33.1553 99.2493 32.566C99.492 31.994 99.6133 31.37 99.6133 30.694V29.134H99.4833C99.2926 29.4287 99.0153 29.758 98.6513 30.122C98.3046 30.4687 97.8366 30.772 97.2473 31.032C96.658 31.292 95.9473 31.422 95.1153 31.422C94.0753 31.422 93.1653 31.2227 92.3853 30.824C91.6226 30.4253 90.9813 29.8967 90.4613 29.238C89.9586 28.562 89.5773 27.808 89.3173 26.976C89.0573 26.144 88.9273 25.2947 88.9273 24.428C88.9273 23.5613 89.0573 22.7207 89.3173 21.906C89.5773 21.074 89.9586 20.3287 90.4613 19.67C90.9813 18.994 91.6226 18.4567 92.3853 18.058C93.1653 17.6593 94.0753 17.46 95.1153 17.46C95.9473 17.46 96.658 17.59 97.2473 17.85C97.8366 18.0927 98.3133 18.396 98.6773 18.76C99.0413 19.1067 99.31 19.436 99.4833 19.748H99.6133V17.72H102.577V30.668C102.577 31.8987 102.326 32.9907 101.823 33.944C101.321 34.8973 100.575 35.6427 99.5873 36.18C98.5993 36.7173 97.386 36.986 95.9473 36.986ZM95.7913 28.978C96.6406 28.978 97.3513 28.7613 97.9233 28.328C98.4953 27.8773 98.92 27.3053 99.1973 26.612C99.4746 25.9187 99.6133 25.1907 99.6133 24.428C99.6133 23.6653 99.4746 22.9373 99.1973 22.244C98.92 21.5507 98.4953 20.9873 97.9233 20.554C97.3513 20.1207 96.6406 19.904 95.7913 19.904C94.9246 19.904 94.2053 20.1207 93.6333 20.554C93.0613 20.9873 92.6366 21.5507 92.3593 22.244C92.082 22.9373 91.9433 23.6653 91.9433 24.428C91.9433 25.1907 92.082 25.9187 92.3593 26.612C92.6366 27.3053 93.0613 27.8773 93.6333 28.328C94.2053 28.7613 94.9246 28.978 95.7913 28.978ZM120.983 31.76C119.388 31.76 118.002 31.4827 116.823 30.928C115.662 30.3733 114.691 29.628 113.911 28.692C113.131 27.7387 112.55 26.6813 112.169 25.52C111.788 24.3413 111.597 23.1367 111.597 21.906C111.597 20.6753 111.788 19.4707 112.169 18.292C112.55 17.1133 113.131 16.056 113.911 15.12C114.708 14.1667 115.696 13.4127 116.875 12.858C118.071 12.286 119.466 12 121.061 12C122.309 12 123.375 12.156 124.259 12.468C125.143 12.78 125.888 13.1873 126.495 13.69C127.102 14.1753 127.587 14.6953 127.951 15.25C128.315 15.8047 128.592 16.3333 128.783 16.836C128.974 17.3387 129.104 17.746 129.173 18.058C129.242 18.37 129.277 18.526 129.277 18.526H126.235C126.235 18.526 126.2 18.396 126.131 18.136C126.062 17.876 125.923 17.564 125.715 17.2C125.524 16.8187 125.238 16.4373 124.857 16.056C124.476 15.6747 123.973 15.3627 123.349 15.12C122.742 14.86 121.988 14.73 121.087 14.73C120.012 14.73 119.068 14.938 118.253 15.354C117.456 15.7527 116.788 16.29 116.251 16.966C115.731 17.642 115.341 18.4047 115.081 19.254C114.821 20.1033 114.691 20.97 114.691 21.854C114.691 22.7553 114.821 23.6393 115.081 24.506C115.358 25.3553 115.757 26.1267 116.277 26.82C116.814 27.496 117.473 28.0333 118.253 28.432C119.05 28.8307 119.978 29.03 121.035 29.03C122.682 29.03 123.99 28.562 124.961 27.626C125.932 26.69 126.469 25.4247 126.573 23.83H121.087V21.386H129.511V22.764C129.511 24.74 129.13 26.3953 128.367 27.73C127.622 29.0647 126.599 30.07 125.299 30.746C124.016 31.422 122.578 31.76 120.983 31.76ZM134.273 15.354C133.736 15.354 133.294 15.172 132.947 14.808C132.6 14.444 132.427 14.0193 132.427 13.534C132.427 13.0313 132.6 12.6067 132.947 12.26C133.294 11.896 133.736 11.714 134.273 11.714C134.81 11.714 135.252 11.896 135.599 12.26C135.963 12.6067 136.145 13.0313 136.145 13.534C136.145 14.0367 135.963 14.47 135.599 14.834C135.252 15.1807 134.81 15.354 134.273 15.354ZM132.817 31.5V17.72H135.781V31.5H132.817ZM146.373 36.986C145.177 36.986 144.189 36.83 143.409 36.518C142.629 36.206 142.005 35.816 141.537 35.348C141.069 34.8973 140.722 34.438 140.497 33.97C140.272 33.5193 140.124 33.138 140.055 32.826C139.986 32.514 139.951 32.358 139.951 32.358H142.889C142.889 32.358 142.924 32.462 142.993 32.67C143.062 32.8953 143.21 33.1467 143.435 33.424C143.678 33.7187 144.033 33.97 144.501 34.178C144.969 34.4033 145.584 34.516 146.347 34.516C147.248 34.516 147.968 34.334 148.505 33.97C149.06 33.6233 149.45 33.1553 149.675 32.566C149.918 31.994 150.039 31.37 150.039 30.694V29.134H149.909C149.718 29.4287 149.441 29.758 149.077 30.122C148.73 30.4687 148.262 30.772 147.673 31.032C147.084 31.292 146.373 31.422 145.541 31.422C144.501 31.422 143.591 31.2227 142.811 30.824C142.048 30.4253 141.407 29.8967 140.887 29.238C140.384 28.562 140.003 27.808 139.743 26.976C139.483 26.144 139.353 25.2947 139.353 24.428C139.353 23.5613 139.483 22.7207 139.743 21.906C140.003 21.074 140.384 20.3287 140.887 19.67C141.407 18.994 142.048 18.4567 142.811 18.058C143.591 17.6593 144.501 17.46 145.541 17.46C146.373 17.46 147.084 17.59 147.673 17.85C148.262 18.0927 148.739 18.396 149.103 18.76C149.467 19.1067 149.736 19.436 149.909 19.748H150.039V17.72H153.003V30.668C153.003 31.8987 152.752 32.9907 152.249 33.944C151.746 34.8973 151.001 35.6427 150.013 36.18C149.025 36.7173 147.812 36.986 146.373 36.986ZM146.217 28.978C147.066 28.978 147.777 28.7613 148.349 28.328C148.921 27.8773 149.346 27.3053 149.623 26.612C149.9 25.9187 150.039 25.1907 150.039 24.428C150.039 23.6653 149.9 22.9373 149.623 22.244C149.346 21.5507 148.921 20.9873 148.349 20.554C147.777 20.1207 147.066 19.904 146.217 19.904C145.35 19.904 144.631 20.1207 144.059 20.554C143.487 20.9873 143.062 21.5507 142.785 22.244C142.508 22.9373 142.369 23.6653 142.369 24.428C142.369 25.1907 142.508 25.9187 142.785 26.612C143.062 27.3053 143.487 27.8773 144.059 28.328C144.631 28.7613 145.35 28.978 146.217 28.978ZM156.446 31.5V17.72H159.41V19.54H159.514C159.774 19.0027 160.182 18.526 160.736 18.11C161.308 17.6767 162.132 17.46 163.206 17.46C163.536 17.46 163.813 17.4773 164.038 17.512C164.281 17.5467 164.402 17.564 164.402 17.564V20.424C164.402 20.424 164.272 20.4067 164.012 20.372C163.752 20.3373 163.458 20.32 163.128 20.32C161.915 20.32 160.988 20.6667 160.346 21.36C159.722 22.036 159.41 23.1367 159.41 24.662V31.5H156.446ZM172.778 31.76C171.27 31.76 169.996 31.422 168.956 30.746C167.933 30.07 167.153 29.186 166.616 28.094C166.096 27.002 165.836 25.8407 165.836 24.61C165.836 23.3793 166.096 22.218 166.616 21.126C167.153 20.034 167.933 19.15 168.956 18.474C169.996 17.798 171.27 17.46 172.778 17.46C174.268 17.46 175.525 17.798 176.548 18.474C177.588 19.15 178.368 20.034 178.888 21.126C179.425 22.218 179.694 23.3793 179.694 24.61C179.694 25.8407 179.425 27.002 178.888 28.094C178.368 29.186 177.588 30.07 176.548 30.746C175.525 31.422 174.268 31.76 172.778 31.76ZM172.778 29.238C173.627 29.238 174.338 29.0213 174.91 28.588C175.499 28.1547 175.941 27.5827 176.236 26.872C176.548 26.1613 176.704 25.4073 176.704 24.61C176.704 23.7953 176.548 23.0413 176.236 22.348C175.941 21.6373 175.499 21.0653 174.91 20.632C174.338 20.1987 173.627 19.982 172.778 19.982C171.928 19.982 171.209 20.1987 170.62 20.632C170.03 21.0653 169.588 21.6373 169.294 22.348C168.999 23.0413 168.852 23.7953 168.852 24.61C168.852 25.4073 168.999 26.1613 169.294 26.872C169.588 27.5827 170.03 28.1547 170.62 28.588C171.209 29.0213 171.928 29.238 172.778 29.238ZM188.208 31.76C187.116 31.76 186.214 31.6127 185.504 31.318C184.81 31.006 184.256 30.6333 183.84 30.2C183.424 29.7493 183.112 29.2987 182.903 28.848C182.713 28.3973 182.592 28.0247 182.54 27.73C182.488 27.418 182.462 27.262 182.462 27.262H185.348C185.348 27.262 185.374 27.3747 185.426 27.6C185.495 27.808 185.625 28.0507 185.816 28.328C186.006 28.6053 186.301 28.8567 186.7 29.082C187.098 29.29 187.627 29.394 188.286 29.394C189.083 29.394 189.672 29.212 190.054 28.848C190.452 28.484 190.652 28.068 190.652 27.6C190.652 27.1493 190.487 26.794 190.158 26.534C189.828 26.274 189.36 26.0747 188.754 25.936L186.882 25.52C186.154 25.3467 185.469 25.1127 184.828 24.818C184.204 24.506 183.692 24.0987 183.294 23.596C182.912 23.076 182.722 22.4087 182.722 21.594C182.722 20.398 183.172 19.41 184.074 18.63C184.975 17.85 186.188 17.46 187.714 17.46C188.702 17.46 189.516 17.5987 190.158 17.876C190.816 18.1533 191.336 18.5 191.718 18.916C192.099 19.3147 192.385 19.722 192.576 20.138C192.766 20.5367 192.888 20.8747 192.94 21.152C193.009 21.412 193.044 21.542 193.044 21.542H190.262C190.262 21.542 190.236 21.4553 190.184 21.282C190.132 21.1087 190.019 20.9093 189.846 20.684C189.672 20.4413 189.412 20.2333 189.066 20.06C188.736 19.8693 188.286 19.774 187.714 19.774C186.934 19.774 186.37 19.9473 186.024 20.294C185.677 20.6407 185.504 21.0133 185.504 21.412C185.504 21.828 185.668 22.1573 185.998 22.4C186.344 22.6253 186.795 22.7987 187.35 22.92L189.196 23.336C190.426 23.6133 191.44 24.0727 192.238 24.714C193.035 25.338 193.434 26.248 193.434 27.444C193.434 28.2413 193.226 28.9693 192.81 29.628C192.411 30.2693 191.822 30.7893 191.042 31.188C190.262 31.5693 189.317 31.76 188.208 31.76ZM201.614 31.76C200.522 31.76 199.62 31.6127 198.91 31.318C198.216 31.006 197.662 30.6333 197.246 30.2C196.83 29.7493 196.518 29.2987 196.31 28.848C196.119 28.3973 195.998 28.0247 195.946 27.73C195.894 27.418 195.868 27.262 195.868 27.262H198.754C198.754 27.262 198.78 27.3747 198.832 27.6C198.901 27.808 199.031 28.0507 199.222 28.328C199.412 28.6053 199.707 28.8567 200.106 29.082C200.504 29.29 201.033 29.394 201.692 29.394C202.489 29.394 203.078 29.212 203.46 28.848C203.858 28.484 204.058 28.068 204.058 27.6C204.058 27.1493 203.893 26.794 203.564 26.534C203.234 26.274 202.766 26.0747 202.16 25.936L200.288 25.52C199.56 25.3467 198.875 25.1127 198.234 24.818C197.61 24.506 197.098 24.0987 196.7 23.596C196.318 23.076 196.128 22.4087 196.128 21.594C196.128 20.398 196.578 19.41 197.48 18.63C198.381 17.85 199.594 17.46 201.12 17.46C202.108 17.46 202.922 17.5987 203.564 17.876C204.222 18.1533 204.742 18.5 205.124 18.916C205.505 19.3147 205.791 19.722 205.982 20.138C206.172 20.5367 206.294 20.8747 206.346 21.152C206.415 21.412 206.45 21.542 206.45 21.542H203.668C203.668 21.542 203.642 21.4553 203.59 21.282C203.538 21.1087 203.425 20.9093 203.252 20.684C203.078 20.4413 202.818 20.2333 202.472 20.06C202.142 19.8693 201.692 19.774 201.12 19.774C200.34 19.774 199.776 19.9473 199.43 20.294C199.083 20.6407 198.91 21.0133 198.91 21.412C198.91 21.828 199.074 22.1573 199.404 22.4C199.75 22.6253 200.201 22.7987 200.756 22.92L202.602 23.336C203.832 23.6133 204.846 24.0727 205.644 24.714C206.441 25.338 206.84 26.248 206.84 27.444C206.84 28.2413 206.632 28.9693 206.216 29.628C205.817 30.2693 205.228 30.7893 204.448 31.188C203.668 31.5693 202.723 31.76 201.614 31.76ZM211.977 31.76C211.439 31.76 210.989 31.578 210.625 31.214C210.278 30.8327 210.105 30.3907 210.105 29.888C210.105 29.368 210.278 28.926 210.625 28.562C210.989 28.198 211.439 28.016 211.977 28.016C212.514 28.016 212.956 28.198 213.303 28.562C213.667 28.926 213.849 29.368 213.849 29.888C213.849 30.408 213.667 30.85 213.303 31.214C212.956 31.578 212.514 31.76 211.977 31.76Z" fill="#02015A"/>
<path d="M224.294 31.76C223.133 31.76 222.119 31.5607 221.252 31.162C220.386 30.746 219.666 30.2 219.094 29.524C218.522 28.8307 218.089 28.0593 217.794 27.21C217.517 26.3607 217.378 25.494 217.378 24.61C217.378 23.726 217.517 22.8593 217.794 22.01C218.089 21.1607 218.522 20.398 219.094 19.722C219.666 19.0287 220.386 18.4827 221.252 18.084C222.119 17.668 223.133 17.46 224.294 17.46C225.438 17.46 226.383 17.6333 227.128 17.98C227.891 18.3093 228.498 18.7253 228.948 19.228C229.399 19.7307 229.737 20.2333 229.962 20.736C230.188 21.2387 230.326 21.6633 230.378 22.01C230.448 22.3567 230.482 22.53 230.482 22.53H227.674C227.674 22.53 227.631 22.4 227.544 22.14C227.475 21.88 227.328 21.5767 227.102 21.23C226.877 20.8833 226.539 20.58 226.088 20.32C225.655 20.06 225.066 19.93 224.32 19.93C223.436 19.93 222.7 20.1553 222.11 20.606C221.521 21.0393 221.07 21.6113 220.758 22.322C220.464 23.0327 220.316 23.7953 220.316 24.61C220.316 25.4247 220.464 26.1873 220.758 26.898C221.07 27.6087 221.521 28.1893 222.11 28.64C222.7 29.0733 223.436 29.29 224.32 29.29C225.066 29.29 225.655 29.16 226.088 28.9C226.539 28.64 226.877 28.3367 227.102 27.99C227.328 27.6433 227.475 27.34 227.544 27.08C227.631 26.82 227.674 26.69 227.674 26.69H230.482C230.482 26.69 230.448 26.8633 230.378 27.21C230.326 27.5567 230.188 27.9813 229.962 28.484C229.737 28.9867 229.399 29.4893 228.948 29.992C228.498 30.4947 227.891 30.9193 227.128 31.266C226.383 31.5953 225.438 31.76 224.294 31.76ZM240.342 31.76C238.834 31.76 237.56 31.422 236.52 30.746C235.497 30.07 234.717 29.186 234.18 28.094C233.66 27.002 233.4 25.8407 233.4 24.61C233.4 23.3793 233.66 22.218 234.18 21.126C234.717 20.034 235.497 19.15 236.52 18.474C237.56 17.798 238.834 17.46 240.342 17.46C241.833 17.46 243.089 17.798 244.112 18.474C245.152 19.15 245.932 20.034 246.452 21.126C246.989 22.218 247.258 23.3793 247.258 24.61C247.258 25.8407 246.989 27.002 246.452 28.094C245.932 29.186 245.152 30.07 244.112 30.746C243.089 31.422 241.833 31.76 240.342 31.76ZM240.342 29.238C241.191 29.238 241.902 29.0213 242.474 28.588C243.063 28.1547 243.505 27.5827 243.8 26.872C244.112 26.1613 244.268 25.4073 244.268 24.61C244.268 23.7953 244.112 23.0413 243.8 22.348C243.505 21.6373 243.063 21.0653 242.474 20.632C241.902 20.1987 241.191 19.982 240.342 19.982C239.493 19.982 238.773 20.1987 238.184 20.632C237.595 21.0653 237.153 21.6373 236.858 22.348C236.563 23.0413 236.416 23.7953 236.416 24.61C236.416 25.4073 236.563 26.1613 236.858 26.872C237.153 27.5827 237.595 28.1547 238.184 28.588C238.773 29.0213 239.493 29.238 240.342 29.238ZM250.417 31.5V17.72H253.381V19.67H253.485C253.641 19.3927 253.867 19.0807 254.161 18.734C254.473 18.3873 254.881 18.0927 255.383 17.85C255.886 17.59 256.519 17.46 257.281 17.46C258.304 17.46 259.153 17.7027 259.829 18.188C260.505 18.6733 261.008 19.3147 261.337 20.112H261.389C261.753 19.4187 262.282 18.8033 262.975 18.266C263.669 17.7287 264.587 17.46 265.731 17.46C266.702 17.46 267.525 17.694 268.201 18.162C268.877 18.6127 269.38 19.228 269.709 20.008C270.056 20.7707 270.229 21.6373 270.229 22.608V31.5H267.265V23.024C267.265 22.1227 267.049 21.386 266.615 20.814C266.182 20.242 265.541 19.956 264.691 19.956C263.998 19.956 263.435 20.1467 263.001 20.528C262.585 20.9093 262.282 21.386 262.091 21.958C261.901 22.5127 261.805 23.076 261.805 23.648V31.5H258.841V23.024C258.841 22.1227 258.625 21.386 258.191 20.814C257.758 20.242 257.117 19.956 256.267 19.956C255.574 19.956 255.011 20.1467 254.577 20.528C254.161 20.9093 253.858 21.386 253.667 21.958C253.477 22.5127 253.381 23.076 253.381 23.648V31.5H250.417Z" fill="#573CFF"/>
</svg>
